<svg xmlns="http://www.w3.org/2000/svg" fill="none" viewBox="-0.5 -0.5 24 24" id="React-Query--Streamline-Svg-Logos.svg" height="24" width="24"><desc>React Query Streamline Icon: https://streamlinehq.com</desc><path fill="#00435B" d="m3.267796875 12.033552083333333 -0.09413229166666667 0.16346770833333335c-0.028342708333333334 0.049234375 -0.08083541666666666 0.079565625 -0.13766458333333334 0.079565625H2.3149188541666668c-0.05681958333333334 0 -0.10931468750000001 -0.03033125 -0.13767177083333335 -0.079565625l-0.09413708333333333 -0.16346770833333335h1.184686875Zm0.2635177083333334 -0.45755625 -0.165959375 0.28819479166666667H1.9855660416666667l-0.16596416666666666 -0.28819479166666667h1.7117127083333334Zm-0.15987395833333334 -0.4474458333333333 0.16013750000000002 0.2780604166666667H1.8193359375l0.16013989583333332 -0.2780604166666667h1.3919647916666666Zm-0.335440625 -0.422984375c0.05682916666666667 0 0.109321875 0.03033125 0.13766458333333334 0.07958958333333334l0.10024166666666667 0.174009375H2.077019791666667l0.10022729166666666 -0.174009375c0.028357083333333335 -0.049258333333333335 0.0808521875 -0.07958958333333334 0.13767177083333335 -0.07958958333333334H3.0360000000000005Z" stroke-width="1"></path><path fill="#002B3B" d="M1.2655654166666666 10.629833333333334c-0.07987947916666667 -0.387334375 -0.09702166666666667 -0.6844177083333334 -0.0453890625 -0.9001385416666666 0.030709791666666666 -0.128296875 0.08685135416666667 -0.23294687500000003 0.1722196875 -0.3084635416666667 0.09012645833333334 -0.07973333333333334 0.20407708333333335 -0.11883333333333333 0.3321104166666667 -0.11883333333333333 0.2112190625 0 0.43326010416666666 0.09631250000000001 0.6705530208333333 0.2792822916666667 0.09677489583333335 0.07463020833333334 0.19723218750000002 0.16459375 0.30157072916666666 0.2699385416666667 0.008289583333333333 -0.010685416666666668 0.017681250000000003 -0.020771875000000002 0.028127083333333334 -0.030091666666666666 0.2949510416666667 -0.262846875 0.5432791666666666 -0.426146875 0.7556458333333333 -0.48910937500000007 0.126284375 -0.03742291666666667 0.24485416666666668 -0.040992708333333336 0.352834375 -0.004671875 0.11396979166666667 0.03835729166666667 0.20477187500000002 0.11763541666666667 0.26883645833333336 0.22870625 0.10575208333333334 0.18325729166666668 0.13363958333333334 0.42408645833333336 0.09420416666666667 0.7214572916666666 -0.016052083333333335 0.12120520833333334 -0.04353229166666667 0.25323958333333335 -0.08234479166666667 0.39627083333333335 0.014638541666666668 0.0017729166666666668 0.029325 0.00503125 0.04384375 0.009846875 0.37422916666666667 0.12400833333333333 0.6392083333333334 0.2573604166666667 0.7996333333333334 0.409759375 0.09545 0.09068229166666666 0.15778958333333334 0.19164270833333336 0.1803104166666667 0.303384375 0.023790625 0.117946875 0.0005989583333333334 0.236253125 -0.06339375 0.3472041666666667 -0.10553645833333333 0.18301770833333333 -0.29959895833333333 0.3273666666666667 -0.5760541666666666 0.44169583333333334 -0.11102291666666667 0.04590416666666667 -0.2366125 0.087471875 -0.3769604166666667 0.12487083333333333 0.006420833333333334 0.014446875 0.011380208333333334 0.029804166666666666 0.014710416666666669 0.04590416666666667 0.07987708333333333 0.387334375 0.09700729166666666 0.6844177083333334 0.04537708333333334 0.9001385416666666 -0.030714583333333337 0.128296875 -0.08684895833333334 0.23294687500000003 -0.17221250000000002 0.3084635416666667 -0.09013125 0.07973333333333334 -0.20407708333333335 0.11885729166666667 -0.3321104166666667 0.11885729166666667 -0.2112166666666667 0 -0.4332625 -0.09633645833333335 -0.6705458333333334 -0.27930625 -0.097821875 -0.07542083333333334 -0.19938125 -0.16651041666666666 -0.30489375 -0.27329270833333336 -0.010877083333333334 0.016986458333333336 -0.02419791666666667 0.03275104166666667 -0.039962500000000005 0.04681458333333333 -0.29494145833333335 0.2628229166666667 -0.5432552083333334 0.4261229166666667 -0.7556434375 0.48908541666666666 -0.126284375 0.037446875 -0.24484937500000004 0.04101666666666667 -0.35282 0.004671875 -0.11396979166666667 -0.03833333333333334 -0.20478145833333336 -0.11763541666666667 -0.26885083333333337 -0.22868229166666668 -0.10573770833333335 -0.18328125 -0.1336228125 -0.42411041666666666 -0.09420177083333334 -0.7214572916666666 0.016648645833333333 -0.12558958333333334 0.045540000000000004 -0.26279895833333333 0.08660458333333335 -0.41184375 -0.0160496875 -0.0016291666666666666 -0.03216885416666667 -0.00503125 -0.0481059375 -0.010302083333333333 -0.3742171875 -0.12400833333333333 -0.6392011458333333 -0.2573604166666667 -0.7996285416666667 -0.40978333333333333 -0.09545 -0.09065833333333334 -0.15778 -0.19161875 -0.1803128125 -0.3033604166666667 -0.02378176041666667 -0.117946875 -0.0005917708333333334 -0.236253125 0.06340333333333334 -0.347228125 0.10554125 -0.18299375 0.29959895833333333 -0.32734270833333334 0.5760613541666667 -0.441671875 0.11431718750000001 -0.04726979166666667 0.24410666666666667 -0.08996354166666667 0.3895217708333334 -0.12820104166666668 -0.005179791666666667 -0.012673958333333334 -0.009271875 -0.02601875 -0.012137291666666666 -0.03991458333333334Z" stroke-width="1"></path><path fill="#FF4154" d="M3.8750208333333336 12.395011458333334c0.03720729166666667 -0.006588541666666667 0.07285729166666667 0.017273958333333332 0.08117083333333333 0.053858333333333334l0.00045520833333333334 0.0021802083333333335 0.003977083333333333 0.020580208333333336c0.12860833333333335 0.6762239583333333 0.038021875000000004 1.0143239583333332 -0.27183125 1.0143239583333332 -0.3031208333333334 0 -0.6890177083333334 -0.28850625 -1.1576666666666666 -0.86551875 -0.010350000000000002 -0.012745833333333333 -0.015932291666666668 -0.028702083333333336 -0.015788541666666666 -0.045137500000000004 0.0003354166666666667 -0.03826145833333334 0.03105 -0.06914375 0.06902395833333334 -0.06995833333333333l0.0022041666666666668 -0.00002395833333333333 0.024677083333333332 0.00016770833333333335c0.1972010416666667 0.0010781249999999999 0.388915625 -0.0057979166666666665 0.57514375 -0.020628125 0.21981770833333333 -0.017489583333333333 0.4493625 -0.04743750000000001 0.688634375 -0.08984375Zm-2.1277851041666667 -0.5111510416666667 0.0011883333333333333 0.0020125 0.012381666666666666 0.021610416666666667c0.09923541666666667 0.17252395833333334 0.20262520833333336 0.33625520833333333 0.31017177083333336 0.49124166666666663 0.1266509375 0.18249062500000002 0.26907843750000005 0.36723333333333336 0.42727770833333334 0.5542520833333334 0.024485416666666666 0.028941666666666668 0.021682291666666666 0.071875 -0.005917708333333334 0.09741458333333335l-0.001796875 0.0016052083333333335 -0.015932291666666668 0.013704166666666667c-0.5234248958333334 0.44847604166666666 -0.8636332291666667 0.5380322916666667 -1.0206226041666668 0.268596875 -0.15366635416666669 -0.2637333333333333 -0.09795364583333334 -0.743259375 0.16714052083333333 -1.438578125 0.005824270833333333 -0.015285416666666666 0.016773229166666667 -0.02807916666666667 0.030973333333333335 -0.03617708333333333 0.03318947916666667 -0.018951041666666668 0.07527229166666667 -0.008002083333333333 0.09513614583333334 0.024317708333333337Zm2.393411145833334 -0.9978166666666666 0.002132291666666667 0.0006947916666666667 0.01969375 0.0068041666666666676c0.6461083333333334 0.22475312500000003 0.8915614583333333 0.4717395833333334 0.7364072916666667 0.740959375 -0.15175208333333334 0.2633260416666667 -0.592896875 0.45504062500000003 -1.3234583333333334 0.57514375 -0.01629166666666667 0.0026833333333333336 -0.032990624999999996 -0.00043125 -0.047245833333333334 -0.008792708333333335 -0.03361354166666667 -0.019765625000000002 -0.04482604166666666 -0.063034375 -0.025084375000000003 -0.09664791666666667 0.10465 -0.17798645833333335 0.198878125 -0.35508645833333335 0.28273229166666664 -0.5313 0.095090625 -0.19986041666666668 0.18431145833333334 -0.41435937500000003 0.2677104166666667 -0.6435208333333333 0.012626041666666666 -0.03473958333333333 0.049761458333333335 -0.05361875 0.08495625000000001 -0.04396354166666667l0.0021562499999999997 0.0006229166666666667Zm-2.282218125 -0.11315520833333334c0.0336159375 0.019765625000000002 0.044847604166666666 0.063034375 0.025084375000000003 0.09664791666666667 -0.10463562500000001 0.17798645833333335 -0.19887572916666668 0.35508645833333335 -0.2827179166666667 0.5313 -0.09508822916666668 0.19983645833333333 -0.18432583333333336 0.4143354166666667 -0.2677080208333334 0.6435208333333333 -0.012899166666666666 0.035434375000000004 -0.051304375 0.054361458333333335 -0.08710770833333334 0.043340625l-0.0021466666666666665 -0.0006947916666666667 -0.0197009375 -0.0068041666666666676c-0.6460867708333333 -0.22475312500000003 -0.8915542708333334 -0.4717395833333334 -0.7363953125000001 -0.7409833333333333 0.15174729166666667 -0.2633020833333333 0.592896875 -0.4550166666666667 1.3234511458333333 -0.57514375 0.01629166666666667 -0.0026833333333333336 0.033007395833333335 0.00043125 0.047241041666666664 0.008816666666666667Zm2.074211875 -1.1069708333333335c0.15364479166666667 0.2637333333333333 0.09794166666666666 0.743259375 -0.16715729166666668 1.438578125 -0.005821875 0.015285416666666666 -0.016770833333333336 0.02807916666666667 -0.030978125000000002 0.03617708333333333 -0.03318229166666667 0.018951041666666668 -0.075253125 0.008002083333333333 -0.09511458333333334 -0.024317708333333337l-0.0011979166666666668 -0.0020125 -0.012386458333333334 -0.021610416666666667c-0.09923541666666667 -0.17252395833333334 -0.20261562500000002 -0.33625520833333333 -0.31016458333333335 -0.49124166666666663 -0.12664375 -0.18249062500000002 -0.26907604166666665 -0.36725729166666665 -0.4272729166666667 -0.5542520833333334 -0.024485416666666666 -0.028941666666666668 -0.021682291666666666 -0.071875 0.005917708333333334 -0.09741458333333335l0.001796875 -0.0016052083333333335 0.015908333333333333 -0.013704166666666667c0.5234416666666667 -0.44850000000000007 0.86365 -0.5380322916666667 1.0206489583333336 -0.268596875Zm-2.2083521875 -0.160496875c0.30313760416666663 0 0.6890344791666667 0.28850625 1.1576594791666668 0.86551875 0.010373958333333334 0.012769791666666667 0.01595625 0.02872604166666667 0.0158125 0.045137500000000004 -0.0003354166666666667 0.03826145833333334 -0.03105 0.06914375 -0.06902395833333334 0.06998229166666668l-0.0022041666666666668 0 -0.024677083333333332 -0.00016770833333333335c-0.1972010416666667 -0.0010541666666666668 -0.388915625 0.005821875 -0.5751461458333333 0.020628125 -0.21982489583333334 0.017489583333333333 -0.44937208333333334 0.04743750000000001 -0.6886391666666667 0.08984375 -0.03720729166666667 0.0066125 -0.07286208333333334 -0.017249999999999998 -0.08117083333333333 -0.053858333333333334l-0.0004576041666666667 -0.0021562499999999997 -0.003962708333333334 -0.020604166666666666c-0.12862270833333334 -0.6762239583333333 -0.03801947916666667 -1.0143239583333332 0.2718096875 -1.0143239583333332Z" stroke-width="1"></path><path fill="#FFD94C" d="M2.373094479166667 10.714573958333334h0.6052857291666667c0.08852604166666667 0 0.17027187500000002 0.04734166666666667 0.21433125 0.12410416666666668l0.30391145833333333 0.529575c0.04372395833333333 0.0761875 0.04372395833333333 0.169840625 0 0.246028125l-0.30391145833333333 0.5295510416666668c-0.044059375000000005 0.07678645833333334 -0.12580520833333333 0.124128125 -0.21433125 0.124128125H2.373094479166667c-0.08851885416666667 0 -0.1702766666666667 -0.04734166666666667 -0.2143384375 -0.124128125L1.8548373958333333 11.61428125c-0.043721562500000005 -0.0761875 -0.043721562500000005 -0.169840625 0 -0.246028125l0.30391864583333333 -0.529575c0.04406177083333333 -0.07676250000000001 0.12581958333333332 -0.12410416666666668 0.2143384375 -0.12410416666666668Zm0.5130221875 0.15982604166666667c0.08857395833333333 0 0.17036770833333334 0.04738958333333334 0.21440312500000003 0.12422395833333333l0.21193541666666668 0.3697489583333333c0.043628125000000004 0.07611562499999999 0.043628125000000004 0.16967291666666667 0 0.2457885416666667l-0.21193541666666668 0.36972499999999997c-0.04403541666666667 0.076834375 -0.12582916666666666 0.12422395833333333 -0.21440312500000003 0.12422395833333333h-0.42078020833333335c-0.08855718750000001 0 -0.17035093750000002 -0.04738958333333334 -0.21439593750000002 -0.12422395833333333l-0.21192822916666668 -0.36972499999999997c-0.04363291666666667 -0.07611562499999999 -0.04363291666666667 -0.16967291666666667 0 -0.2457885416666667l0.21192822916666668 -0.3697489583333333c0.044045 -0.076834375 0.12583875000000003 -0.12422395833333333 0.21439593750000002 -0.12422395833333333h0.42078020833333335Zm-0.09942708333333333 0.17482395833333333h-0.22190208333333336c-0.088478125 0 -0.17021197916666667 0.04729375 -0.214288125 0.12400833333333333l-0.11199083333333335 0.19490104166666666c-0.043800625 0.07623541666666667 -0.043800625 0.17000833333333334 0 0.24624375l0.11199083333333335 0.19490104166666666c0.04407614583333334 0.07671458333333334 0.12581 0.12403229166666668 0.214288125 0.12403229166666668h0.22190208333333336c0.088478125 0 0.17020000000000002 -0.04731770833333334 0.21428333333333333 -0.12403229166666668l0.11198125 -0.19490104166666666c0.04381979166666667 -0.07623541666666667 0.04381979166666667 -0.17000833333333334 0 -0.24624375l-0.11198125 -0.19490104166666666c-0.044083333333333335 -0.07671458333333334 -0.12580520833333333 -0.12400833333333333 -0.21428333333333333 -0.12400833333333333Zm-0.0957375 0.167325c0.08840625 0 0.17008020833333334 0.047221875 0.2141875 0.12384062500000001l0.015884375 0.0276c0.043915625 0.07630729166666667 0.043915625 0.17022395833333334 0 0.24655520833333333l-0.015884375 0.027576041666666665c-0.04410729166666667 0.07661875 -0.12578125 0.12386458333333335 -0.2141875 0.12386458333333335h-0.030427083333333334c-0.08840625 0 -0.17008020833333334 -0.047245833333333334 -0.2141875 -0.12386458333333335l-0.015884375 -0.027576041666666665c-0.0439228125 -0.07633125 -0.0439228125 -0.17024791666666667 0 -0.24655520833333333l0.015884375 -0.0276c0.04410729166666667 -0.07661875 0.12578125 -0.12384062500000001 0.2141875 -0.12384062500000001h0.030427083333333334Zm-0.015165625 0.16483333333333333c-0.03936354166666667 0 -0.07563645833333334 0.020939583333333334 -0.09530625 0.054936458333333334 -0.019621875 0.033996875 -0.019621875 0.07590000000000001 0 0.10987291666666667 0.01966979166666667 0.034020833333333333 0.05594270833333334 0.054960416666666664 0.09521041666666666 0.054960416666666664 0.03936354166666667 0 0.07563645833333334 -0.020939583333333334 0.09528229166666667 -0.054960416666666664 0.019645833333333335 -0.03397291666666667 0.019645833333333335 -0.07587604166666667 0 -0.10987291666666667 -0.019645833333333335 -0.033996875 -0.05591875 -0.054936458333333334 -0.09518645833333333 -0.054936458333333334Zm-0.8915446875 0.10987291666666667h0.19783833333333337Z" stroke-width="1"></path><path fill="#00435B" d="M6.570716666666667 12.647412500000002v-0.8087854166666667h0.44205520833333334l0.4158447916666667 0.8087854166666667h0.556671875l-0.42897395833333335 -0.8841104166666667c0.1288 -0.052396875 0.23031145833333336 -0.14298333333333335 0.30453437499999997 -0.2717833333333334 0.07422291666666668 -0.1288 0.111334375 -0.26085833333333336 0.111334375 -0.39619895833333335 0 -0.21830833333333335 -0.06166875000000001 -0.39622291666666665 -0.18500625 -0.53374375 -0.12333750000000002 -0.13752083333333331 -0.32252708333333335 -0.20628125 -0.5975927083333333 -0.20628125h-1.1166020833333332v2.2921177083333335h0.49773437500000006Zm0.6254083333333333 -1.2803093749999999h-0.6254083333333333v-0.540284375h0.6254083333333333c0.09168854166666666 0 0.15771770833333335 0.025635416666666667 0.19811145833333332 0.07693020833333333 0.04039375 0.05131875 0.06056666666666668 0.11516770833333334 0.06056666666666668 0.19157083333333333 0 0.18117291666666668 -0.08622604166666667 0.2717833333333334 -0.25867812500000004 0.2717833333333334Zm1.5341958333333334 1.3196010416666668c0.26632083333333334 0 0.4835270833333334 -0.10151145833333335 0.65161875 -0.30453437499999997l-0.275065625 -0.27504166666666663c-0.09822916666666666 0.11787500000000001 -0.22374687499999998 0.1768125 -0.37655312500000004 0.1768125 -0.09386875 0 -0.17137395833333335 -0.025635416666666667 -0.23249166666666668 -0.07695416666666667 -0.06111770833333333 -0.05129479166666667 -0.09386875 -0.12932708333333331 -0.09822916666666666 -0.23412083333333333h1.0707458333333333c0.008720833333333334 -0.05675729166666667 0.01308125 -0.13862291666666668 0.01308125 -0.24557291666666667 0 -0.2576 -0.06983854166666667 -0.45405833333333334 -0.2095635416666667 -0.5893989583333334 -0.13970104166666666 -0.13536458333333332 -0.32089791666666667 -0.2030229166666667 -0.5435427083333333 -0.2030229166666667 -0.24449479166666666 0 -0.43824583333333333 0.07858333333333334 -0.5812291666666667 0.23575000000000002 -0.14298333333333335 0.157190625 -0.214475 0.3700125 -0.214475 0.6385375 0 0.27504166666666663 0.070940625 0.49006770833333335 0.21284583333333335 0.6450541666666667 0.14188125 0.15498645833333335 0.33618333333333333 0.23249166666666668 0.5828583333333334 0.23249166666666668Zm0.2979697916666667 -1.0707458333333333h-0.6254322916666667c0.010925 -0.087328125 0.043676041666666665 -0.1555375 0.09822916666666666 -0.20465208333333332 0.05457708333333334 -0.04911458333333333 0.12443958333333333 -0.073671875 0.2095875 -0.073671875 0.18771354166666668 0 0.293609375 0.09276666666666666 0.317615625 0.27832395833333334Zm1.1314083333333336 1.0707458333333333c0.17683645833333334 0 0.3154354166666667 -0.05457708333333334 0.41586875 -0.16373125v0.12443958333333333h0.4715239583333333v-1.0576645833333334c0 -0.43659270833333336 -0.23685208333333335 -0.6548770833333334 -0.7105562500000001 -0.6548770833333334 -0.27288541666666666 0 -0.5119177083333333 0.06986250000000001 -0.7171208333333333 0.2095635416666667l0.14734375 0.363471875c0.17683645833333334 -0.11789895833333333 0.3558291666666667 -0.17683645833333334 0.5370260416666667 -0.17683645833333334 0.08512395833333333 0 0.15170416666666667 0.020196875 0.199740625 0.06059062500000001 0.0480125 0.04036979166666667 0.07204270833333334 0.09878020833333334 0.07204270833333334 0.17518333333333333v0.09168854166666666c-0.087328125 -0.039315625 -0.2095635416666667 -0.05896145833333334 -0.36675416666666666 -0.05896145833333334 -0.18117291666666668 0 -0.3394416666666667 0.04640729166666667 -0.4747822916666667 0.13917395833333332s-0.2030229166666667 0.2254 -0.2030229166666667 0.3978520833333334c0 0.1768125 0.058386458333333335 0.31270416666666667 0.17518333333333333 0.407675 0.11679687500000001 0.094946875 0.26795 0.14243229166666668 0.4535072916666667 0.14243229166666668Zm0.09168854166666666 -0.39948125c-0.17027187500000002 0 -0.2553958333333334 -0.04911458333333333 -0.2553958333333334 -0.14734375 0 -0.10697395833333334 0.09822916666666666 -0.16044895833333334 0.2946875 -0.16044895833333334 0.10261354166666667 0 0.19756041666666668 0.01308125 0.28488854166666666 0.03929166666666667v0.15062604166666668c-0.09822916666666666 0.07858333333333334 -0.20630520833333332 0.11787500000000001 -0.32418020833333333 0.11787500000000001Zm1.7077260416666669 0.39948125c0.37983541666666665 0 0.6254322916666667 -0.18883958333333334 0.7367427083333333 -0.5664947916666667l-0.4551364583333333 -0.13095625c-0.05021666666666667 0.16152708333333335 -0.1440854166666667 0.24229062500000004 -0.28160625 0.24229062500000004 -0.087328125 0 -0.159346875 -0.038740625 -0.21610416666666668 -0.11624583333333334 -0.05675729166666667 -0.07748125 -0.08514791666666667 -0.17844166666666667 -0.08514791666666667 -0.30288125 0 -0.124415625 0.028917708333333333 -0.22592708333333333 0.08677708333333334 -0.3045104166666667 0.05783541666666667 -0.07860729166666668 0.13153125000000002 -0.11789895833333333 0.221015625 -0.11789895833333333 0.1288 0 0.22048854166666668 0.07204270833333334 0.275065625 0.216128125l0.451878125 -0.14734375c-0.10915416666666668 -0.3492885416666667 -0.3536489583333333 -0.5239208333333333 -0.7334843750000001 -0.5239208333333333 -0.23575000000000002 0 -0.425140625 0.07913437499999999 -0.5681239583333334 0.23740312500000002 -0.14298333333333335 0.15824479166666666 -0.214475 0.37164166666666665 -0.214475 0.6401427083333333 0 0.27288541666666666 0.070940625 0.486809375 0.21284583333333335 0.6417958333333333 0.14188125 0.15498645833333335 0.33179895833333334 0.23249166666666668 0.569753125 0.23249166666666668Zm1.39336875 0c0.15062604166666668 0 0.27724583333333336 -0.025108333333333337 0.37983541666666665 -0.075325l0.052396875 -0.39948125c-0.09604895833333334 0.043676041666666665 -0.19209791666666667 0.06550208333333334 -0.288146875 0.06550208333333334 -0.026186458333333332 0 -0.04856354166666667 -0.008193750000000001 -0.06713125 -0.024557291666666665 -0.01854375 -0.016387500000000003 -0.027839583333333334 -0.03984270833333334 -0.027839583333333334 -0.07041354166666666v-0.792421875h0.363471875v-0.4158447916666667h-0.363471875v-0.6909104166666666l-0.4715239583333333 0.22592708333333333v0.46498333333333336h-0.22920937500000002v0.4158447916666667h0.22920937500000002v0.838278125c0 0.3056125 0.140803125 0.45841875000000004 0.422409375 0.45841875000000004Zm2.59684375 0.22592708333333333 0.36673020833333336 -0.23575000000000002 -0.1768125 -0.25867812500000004c0.21610416666666668 -0.22484895833333335 0.32415625000000003 -0.5304614583333334 0.32415625000000003 -0.9168614583333334 0 -0.14844583333333336 -0.019094791666666666 -0.29032708333333335 -0.057284375000000005 -0.42566770833333334 -0.03821354166666667 -0.135340625 -0.095521875 -0.261409375 -0.17192500000000002 -0.37820625 -0.076403125 -0.11679687500000001 -0.18227500000000002 -0.2095635416666667 -0.317615625 -0.27832395833333334 -0.135340625 -0.06876041666666666 -0.2914291666666667 -0.103140625 -0.46824166666666667 -0.103140625 -0.1440854166666667 0 -0.27451458333333334 0.02290416666666667 -0.39131145833333336 0.06876041666666666 -0.11677291666666667 0.04583229166666667 -0.21337291666666666 0.10750104166666667 -0.2897760416666667 0.18500625 -0.076403125 0.07748125 -0.14025208333333333 0.16754062500000003 -0.19157083333333333 0.27013020833333334 -0.05129479166666667 0.10261354166666667 -0.08840625 0.20903645833333334 -0.11131041666666668 0.31926875 -0.022928125 0.11023229166666668 -0.034404166666666666 0.22429791666666668 -0.034404166666666666 0.34217291666666666 0 0.11787500000000001 0.011476041666666667 0.231940625 0.034404166666666666 0.342196875 0.02290416666666667 0.11023229166666668 0.060015625 0.21665520833333335 0.11131041666666668 0.3192447916666667 0.05131875 0.10261354166666667 0.11516770833333334 0.19264895833333334 0.19157083333333333 0.27015416666666664 0.076403125 0.07748125 0.173003125 0.13915 0.2897760416666667 0.18500625 0.11679687500000001 0.04583229166666667 0.24722604166666667 0.06876041666666666 0.39131145833333336 0.06876041666666666 0.10915416666666668 0 0.21502604166666667 -0.014183333333333334 0.317615625 -0.042573958333333335l0.18337708333333333 0.26850104166666666ZM15.448333333333334 12.205357291666667c-0.08950833333333333 0 -0.16809166666666667 -0.021275000000000002 -0.23577395833333334 -0.06384895833333334 -0.06765833333333333 -0.042573958333333335 -0.12005520833333333 -0.09933125000000001 -0.15716666666666668 -0.17027187500000002 -0.03711145833333334 -0.070940625 -0.0644 -0.14571458333333334 -0.081865625 -0.22429791666666668 -0.017465625000000002 -0.07858333333333334 -0.026186458333333332 -0.16044895833333334 -0.026186458333333332 -0.245596875 0 -0.11351458333333334 0.014183333333333334 -0.221015625 0.042573958333333335 -0.32252708333333335 0.02836666666666667 -0.10151145833333335 0.08239270833333333 -0.1910197916666667 0.16207812500000002 -0.26850104166666666 0.07968541666666668 -0.07750520833333334 0.17846562500000002 -0.11624583333333334 0.296340625 -0.11624583333333334 0.11787500000000001 0 0.21610416666666668 0.0376625 0.2946875 0.11296354166666667 0.07860729166666668 0.075325 0.13208229166666668 0.16373125 0.16044895833333334 0.26524270833333335 0.028390625 0.1014875 0.042573958333333335 0.21119270833333334 0.042573958333333335 0.3290677083333333 0 0.19209791666666667 -0.034931250000000004 0.34710833333333335 -0.10476979166666668 0.46498333333333336l-0.18337708333333333 -0.275065625 -0.3700125 0.23903229166666667 0.1866354166666667 0.2717833333333334h-0.01636354166666667l-0.009822916666666667 0.003282291666666667Zm1.7339125 0.48134687500000006c0.20084270833333334 0 0.3536489583333333 -0.0644 0.45841875000000004 -0.1932v0.15390833333333334h0.47480625000000004v-1.6732500000000001h-0.47480625000000004v0.8775458333333334c0 0.1288 -0.023455208333333335 0.22377083333333336 -0.07038958333333334 0.28488854166666666 -0.046934375 0.06111770833333333 -0.12060625 0.09168854166666666 -0.22103958333333334 0.09168854166666666 -0.100409375 0 -0.17027187500000002 -0.030570833333333332 -0.2095635416666667 -0.09168854166666666 -0.03929166666666667 -0.06111770833333333 -0.058937500000000004 -0.15826874999999999 -0.058937500000000004 -0.2914291666666667v-0.8710052083333334h-0.4747822916666667v1.087109375c0 0.11351458333333334 0.017992708333333333 0.21284583333333335 0.05402604166666667 0.29799375 0.036009374999999996 0.08512395833333333 0.08349479166666667 0.15062604166666668 0.14243229166666668 0.19645833333333332 0.058937500000000004 0.04583229166666667 0.12005520833333333 0.07913437499999999 0.18337708333333333 0.09988229166666666 0.06329791666666666 0.020723958333333334 0.1288 0.031097916666666666 0.19645833333333332 0.031097916666666666Zm1.891103125 0c0.26632083333333334 0 0.4835270833333334 -0.10151145833333335 0.65161875 -0.30453437499999997l-0.275065625 -0.27504166666666663c-0.09822916666666666 0.11787500000000001 -0.22374687499999998 0.1768125 -0.37655312500000004 0.1768125 -0.09386875 0 -0.17137395833333335 -0.025635416666666667 -0.23249166666666668 -0.07695416666666667 -0.06111770833333333 -0.05129479166666667 -0.09386875 -0.12932708333333331 -0.09822916666666666 -0.23412083333333333h1.0707458333333333c0.008720833333333334 -0.05675729166666667 0.013105208333333333 -0.13862291666666668 0.013105208333333333 -0.24557291666666667 0 -0.2576 -0.06986250000000001 -0.45405833333333334 -0.2095875 -0.5893989583333334 -0.13970104166666666 -0.13536458333333332 -0.3208739583333333 -0.2030229166666667 -0.5435427083333333 -0.2030229166666667 -0.24449479166666666 0 -0.43824583333333333 0.07858333333333334 -0.5812291666666667 0.23575000000000002 -0.14298333333333335 0.157190625 -0.214475 0.3700125 -0.214475 0.6385375 0 0.27504166666666663 0.070940625 0.49006770833333335 0.21284583333333335 0.6450541666666667 0.14188125 0.15498645833333335 0.33618333333333333 0.23249166666666668 0.5828583333333334 0.23249166666666668Zm0.2979697916666667 -1.0707458333333333h-0.6254322916666667c0.010925 -0.087328125 0.043676041666666665 -0.1555375 0.09825312500000001 -0.20465208333333332 0.05455312500000001 -0.04911458333333333 0.124415625 -0.073671875 0.2095635416666667 -0.073671875 0.1877375 0 0.293609375 0.09276666666666666 0.317615625 0.27832395833333334Zm1.075753125 1.0314541666666668v-0.9070385416666666c0 -0.23138958333333334 0.09604895833333334 -0.34708437500000006 0.288146875 -0.34708437500000006 0.10697395833333334 0 0.20630520833333332 0.03821354166666667 0.2979697916666667 0.11461666666666667l0.06221979166666666 -0.4322322916666667c-0.089484375 -0.09386875 -0.199740625 -0.140803125 -0.33072083333333335 -0.140803125 -0.076403125 0 -0.14298333333333335 0.020723958333333334 -0.199740625 0.06221979166666666 -0.05675729166666667 0.041471875000000005 -0.09604895833333334 0.08404583333333333 -0.11787500000000001 0.1276979166666667v-0.15062604166666668h-0.47480625000000004v1.6732500000000001h0.47480625000000004Zm1.4228375 0.63523125 0.8906510416666666 -2.3084812500000003h-0.48788750000000003l-0.3372614583333333 0.8939333333333334c-0.02400625 0.065478125 -0.041471875000000005 0.11787500000000001 -0.052396875 0.15716666666666668 -0.010925 -0.03929166666666667 -0.02836666666666667 -0.09168854166666666 -0.052396875 -0.15716666666666668l-0.34054375000000003 -0.8939333333333334h-0.4911697916666667l0.6319729166666667 1.6536041666666668 -0.2521375 0.6548770833333334h0.4911697916666667Z" stroke-width="1"></path></svg>